<?xml version="1.0" standalone="no"?><!DOCTYPE svg PUBLIC "-//W3C//DTD SVG 1.1//EN" "http://www.w3.org/Graphics/SVG/1.1/DTD/svg11.dtd"><svg t="1721353302482" class="icon" viewBox="0 0 1024 1024" version="1.1" xmlns="http://www.w3.org/2000/svg" p-id="6314" xmlns:xlink="http://www.w3.org/1999/xlink" width="200" height="200"><path d="M431.8 113.5H168.5c-34.6 0-62.7 28.1-62.7 62.7v263.3c0 34.6 28.1 62.7 62.7 62.7h263.3c34.6 0 62.7-28.1 62.7-62.7V176.3c0.1-34.6-28.1-62.8-62.7-62.8z m0 326.1H168.5V176.3h263.3v263.3zM428.7 533.9H165.4c-34.6 0-62.7 28.1-62.7 62.7V860c0 34.6 28.1 62.7 62.7 62.7h263.3c34.6 0 62.7-28.1 62.7-62.7V596.7c0-34.6-28.1-62.8-62.7-62.8z m0 326.1H165.4V596.7h263.3V860zM595.4 502.3h263.3c34.6 0 62.7-26.9 62.7-59.9v-48.1c0-17.3-14-31.4-31.4-31.4s-31.4 14-31.4 31.4V439.6H595.4V176.3h263.3V204.4c0 17.3 14 31.4 31.4 31.4s31.4-14 31.4-31.4v-31.7c0-32.7-28.1-59.2-62.7-59.2H595.4c-34.6 0-62.7 28.1-62.7 62.7v263.3c-0.1 34.7 28.1 62.8 62.7 62.8z" fill="#4D4D4D" p-id="6315"></path><path d="M890.1 298.6m-31.4 0a31.4 31.4 0 1 0 62.8 0 31.4 31.4 0 1 0-62.8 0Z" fill="#4D4D4D" p-id="6316"></path><path d="M911.8 589.5c-14-10.3-33.6-7.3-43.9 6.7L689.2 839.1 591.3 761c-13.5-10.8-33.3-8.6-44.1 4.9-10.8 13.5-8.6 33.3 4.9 44.1l121.4 97c2.9 2.3 6 4 9.3 5.1 4 1.8 8.3 2.7 12.6 2.7 9.6 0 19.1-4.4 25.3-12.8l197.7-268.6c10.4-14 7.4-33.6-6.6-43.9z" fill="#4D4D4D" p-id="6317"></path></svg>